<?xml version="1.0" encoding="UTF-8"?>
<svg width="223px" height="199px" viewBox="0 0 223 199" version="1.1" xmlns="http://www.w3.org/2000/svg" xmlns:xlink="http://www.w3.org/1999/xlink" style="background: #043DE2;">
    <!-- Generator: Sketch 63.1 (92452) - https://sketch.com -->
    <title>logo / block_WestBlue@2x</title>
    <desc>Created with Sketch.</desc>
    <g id="logo-/-block_WestBlue" stroke="none" stroke-width="1" fill="none" fill-rule="evenodd">
        <rect fill="#043DE2" x="0" y="0" width="223" height="199"></rect>
        <rect id="Rectangle" fill="#043DE2" x="0" y="0" width="223" height="199"></rect>
        <path d="M108.360095,146.704882 C97.0946816,131.446458 98.3916027,108.523337 121.998958,87.7690413 L121.891588,157.046546 L142.478445,138.676822 L142.549084,87.0451532 L147.19144,82.4520127 L155.829104,91.1301528 L155.865836,153.7195 C140.785949,163.445148 119.337303,161.49207 108.360095,146.704882 L108.360095,146.704882 Z M163.090499,65.0616672 L179.42775,81.5123776 L185.906705,75.1506792 L187.489005,76.5246471 L179.501214,84.4788992 L179.249741,145.836217 L190.080022,156.683182 L196.414874,150.355549 L198,151.729517 L175.79411,173.968493 L158.193845,156.251688 C143.83447,178.811446 110.473363,177.366509 95.3595692,159.323245 C79.9914774,178.52473 49.2213873,176.319 34.82528,159.215371 L34.82528,159.215371 L32.2342632,155.888325 C17.8042495,136.581805 28.4904277,113.911335 63.6174947,85.3816301 C51.5609314,85.3816301 46.3788978,81.6571552 38.8205883,81.6571552 C34.0341298,81.6571552 30.4004902,83.1389966 30.4004902,86.6477245 C30.4004902,90.4431688 32.3416336,91.3118345 39.4309041,93.8071191 C30.2563878,93.770215 26.0802452,90.008836 26.1169772,81.875741 C26.1169772,72.9080457 33.8900275,66.8699679 44.9039679,66.906872 C54.3666889,66.906872 61.6367937,70.883998 70.2377262,71.7157595 C75.9961691,72.2579659 81.5737777,68.0991581 84.2382584,65.4221918 L84.2382584,65.4221918 L84.130888,138.568949 L63.5807627,156.938672 L63.6881331,87.6611678 C40.0807775,108.415464 38.7838563,131.375489 50.0492695,146.597009 C59.9103911,159.902355 78.1548788,162.72126 92.7318205,156.106911 C78.2989812,136.760648 88.9173465,114.019209 124.041588,85.4895037 C111.985025,85.4895037 106.802991,81.7650287 99.2446816,81.7650287 C94.4243167,81.7309634 90.8245835,83.2497089 90.8245835,86.755598 C90.8245835,90.5510424 92.7685524,91.419708 99.857823,93.9149926 C90.6804811,93.8780885 86.5410705,90.1195483 86.5410705,81.9836145 C86.5410705,73.0159192 94.2802143,66.9778414 105.328061,67.0147455 C114.756876,67.0147455 122.097619,70.9918715 130.698551,71.8236331 C136.456994,72.3658394 142.037428,68.2070317 144.699084,65.5329041 L144.699084,65.5329041 L144.699084,83.7919152 L163.090499,65.0616672 Z M179.695046,25 L179.695046,38.3536052 L26,38.3536052 L26,25 L179.695046,25 Z" id="Combined-Shape" fill="#FFFFFF"></path>
    </g>
</svg>